<?xml version="1.0" encoding="UTF-8" standalone="no"?>
<!-- Created with Inkscape (http://www.inkscape.org/) -->

<svg
   width="1263.392"
   height="474.07437"
   viewBox="0 0 1263.392 474.07437"
   version="1.1"
   id="svg1"
   xml:space="preserve"
   inkscape:version="1.3.2 (091e20ef0f, 2023-11-25, custom)"
   sodipodi:docname="boat.svg"
   xmlns:inkscape="http://www.inkscape.org/namespaces/inkscape"
   xmlns:sodipodi="http://sodipodi.sourceforge.net/DTD/sodipodi-0.dtd"
   xmlns="http://www.w3.org/2000/svg"
   xmlns:svg="http://www.w3.org/2000/svg"><sodipodi:namedview
     id="namedview1"
     pagecolor="#505050"
     bordercolor="#ffffff"
     borderopacity="1"
     inkscape:showpageshadow="0"
     inkscape:pageopacity="0"
     inkscape:pagecheckerboard="1"
     inkscape:deskcolor="#d1d1d1"
     inkscape:document-units="px"
     inkscape:zoom="0.51924801"
     inkscape:cx="618.2017"
     inkscape:cy="15.406896"
     inkscape:window-width="2256"
     inkscape:window-height="1396"
     inkscape:window-x="0"
     inkscape:window-y="0"
     inkscape:window-maximized="1"
     inkscape:current-layer="g6" /><defs
     id="defs1"><inkscape:path-effect
       effect="simplify"
       id="path-effect7"
       is_visible="true"
       lpeversion="1.3"
       threshold="17.2414"
       steps="1"
       smooth_angles="360"
       helper_size="0"
       simplify_individual_paths="false"
       simplify_just_coalesce="false" /><inkscape:path-effect
       effect="bspline"
       id="path-effect86"
       is_visible="true"
       lpeversion="1.3"
       weight="33.333333"
       steps="2"
       helper_size="0"
       apply_no_weight="true"
       apply_with_weight="true"
       only_selected="false"
       uniform="false" /></defs><g
     inkscape:label="Layer 1"
     inkscape:groupmode="layer"
     id="layer1"
     transform="translate(-176.6077,-491.80863)"><g
       inkscape:label="Layer 1"
       id="layer1-5"
       transform="translate(462.84791,465.35396)"><g
         id="g10"
         transform="matrix(-1,0,0,1,202.51456,0)"><rect
           style="fill:#ddbe6b;fill-opacity:1;fill-rule:evenodd;stroke:#000000;stroke-width:5;stroke-linecap:round;stroke-dasharray:none;stroke-opacity:1"
           id="rect10"
           width="16.693064"
           height="96.549072"
           x="116.36401"
           y="269.82928"
           transform="rotate(-15)" /><ellipse
           style="font-variation-settings:normal;opacity:1;fill:#ddbe6b;fill-opacity:1;fill-rule:evenodd;stroke:#000000;stroke-width:5;stroke-linecap:butt;stroke-linejoin:miter;stroke-miterlimit:4;stroke-dasharray:none;stroke-dashoffset:0;stroke-opacity:1;stop-color:#000000;stop-opacity:1"
           id="ellipse10"
           cx="217.08089"
           cy="330.19611"
           rx="15.477802"
           ry="12.477801" /></g><g
         id="g9"><rect
           style="fill:#ddbe6b;fill-opacity:1;fill-rule:evenodd;stroke:#000000;stroke-width:5;stroke-linecap:round;stroke-dasharray:none;stroke-opacity:1"
           id="rect9"
           width="16.693064"
           height="96.549072"
           x="116.36401"
           y="269.82928"
           transform="rotate(-15)" /><ellipse
           style="font-variation-settings:normal;opacity:1;fill:#ddbe6b;fill-opacity:1;fill-rule:evenodd;stroke:#000000;stroke-width:5;stroke-linecap:butt;stroke-linejoin:miter;stroke-miterlimit:4;stroke-dasharray:none;stroke-dashoffset:0;stroke-opacity:1;stop-color:#000000;stop-opacity:1"
           id="path9"
           cx="217.08089"
           cy="330.19611"
           rx="15.477802"
           ry="12.477801" /></g><path
         id="rect4"
         style="fill:#2830b1;fill-rule:evenodd;stroke:#000000;stroke-width:5;stroke-linecap:round"
         d="m 49.0625,174.96871 c -7.446995,1.76706 -52.3626113,39.66598 -52.1112852,56.02344 0.2513261,16.35746 24.3948382,11.46626 28.1455782,15.19333 3.75074,3.72707 11.245707,-37.81319 23.965707,-25.21673 12.72,12.59646 0,134.53125 0,134.53125 h 3.808594 V 463.51758 H 90.1875 V 355.5 h 23.92188 v 108.01758 h 37.3164 V 355.5 h 3 c 0,0 -9.88029,-122.59187 0,-135.33594 9.88029,-12.74407 13.83904,21.18725 19.14214,18.25169 5.3031,-2.93555 24.99906,5.00178 28.12677,-10.16172 3.12771,-15.1635 -34.06552,-53.28532 -47.26891,-53.28532 0,0 -34.6335,-7.35328 -52.68164,-7.35328 -18.048144,0 -52.68164,7.35328 -52.68164,7.35328 z"
         sodipodi:nodetypes="szzzcccccccccczzzsss" /><circle
         style="font-variation-settings:normal;opacity:1;fill:#ddbe6b;fill-opacity:1;fill-rule:evenodd;stroke:#000000;stroke-width:5;stroke-linecap:butt;stroke-linejoin:miter;stroke-miterlimit:4;stroke-dasharray:none;stroke-dashoffset:0;stroke-opacity:1;stop-color:#000000;stop-opacity:1"
         id="path1-3"
         cx="101.74355"
         cy="102.54784"
         r="73.593163" /><ellipse
         style="font-variation-settings:normal;vector-effect:none;fill:#2c2c2c;fill-opacity:1;fill-rule:evenodd;stroke-width:9.99999;stroke-linecap:butt;stroke-linejoin:miter;stroke-miterlimit:4;stroke-dasharray:none;stroke-dashoffset:0;stroke-opacity:0.501845;-inkscape-stroke:none;stop-color:#000000"
         id="path2-9"
         cx="128.24942"
         cy="86.292381"
         rx="9.2494135"
         ry="17.292381" /><ellipse
         style="font-variation-settings:normal;opacity:1;vector-effect:none;fill:#2c2c2c;fill-opacity:1;fill-rule:evenodd;stroke-width:9.99999;stroke-linecap:butt;stroke-linejoin:miter;stroke-miterlimit:4;stroke-dasharray:none;stroke-dashoffset:0;stroke-opacity:0.501845;-inkscape-stroke:none;stop-color:#000000;stop-opacity:1"
         id="path2"
         cx="77.614647"
         cy="86.292381"
         rx="9.2494135"
         ry="17.292381" /><path
         style="fill:#ddbe6b;fill-opacity:1;fill-rule:evenodd;stroke:#000000;stroke-width:5;stroke-linecap:round;stroke-dasharray:none;stroke-opacity:1"
         d="m 67.560933,134.31757 70.778117,3.21719 v 0 z"
         id="path4" /><ellipse
         style="font-variation-settings:normal;opacity:1;fill:#9d6a37;fill-opacity:1;fill-rule:evenodd;stroke:#000000;stroke-width:5.21664;stroke-linecap:butt;stroke-linejoin:miter;stroke-miterlimit:4;stroke-dasharray:none;stroke-dashoffset:0;stroke-opacity:1;stop-color:#000000;stop-opacity:1"
         id="path8"
         cx="71.259804"
         cy="463.60309"
         rx="18.286654"
         ry="10.441194" /><ellipse
         style="font-variation-settings:normal;opacity:1;fill:#9d6a37;fill-opacity:1;fill-rule:evenodd;stroke:#000000;stroke-width:5.21664;stroke-linecap:butt;stroke-linejoin:miter;stroke-miterlimit:4;stroke-dasharray:none;stroke-dashoffset:0;stroke-opacity:1;stop-color:#000000;stop-opacity:1"
         id="ellipse9"
         cx="132.55174"
         cy="463.60309"
         rx="18.286654"
         ry="10.441194" /></g><path
       style="fill:#493c20;fill-opacity:1;fill-rule:evenodd;stroke:#000000;stroke-width:5;stroke-linecap:round;stroke-dasharray:none;stroke-opacity:1"
       d="m 802.72505,790.65285 c 0,0 -100.30063,111.6364 -166.26704,143.27266 -43.79371,21.00265 -94.76466,24.08782 -143.27266,26.53197 -64.37124,3.24344 -133.16127,8.75964 -192.70229,-15.91918 -37.89173,-15.70553 -93.84304,-79.59592 -93.84304,-79.59592 l -26.53197,-77.82713 z"
       id="path1"
       sodipodi:nodetypes="csssccc" /><g
       inkscape:label="Layer 1"
       id="g6"
       transform="translate(1094.5439,465.35396)"><g
         id="g79"
         inkscape:label="Face"
         transform="translate(-776.28144,-535.83235)"><circle
           style="font-variation-settings:normal;fill:#ddbe6b;fill-opacity:1;fill-rule:evenodd;stroke:#000000;stroke-width:5;stroke-linecap:butt;stroke-linejoin:miter;stroke-miterlimit:4;stroke-dasharray:none;stroke-dashoffset:0;stroke-opacity:1;stop-color:#000000"
           id="circle77"
           cx="877.73975"
           cy="635.63397"
           r="73.593163" /><path
           style="fill:#3a1100;fill-opacity:1;fill-rule:evenodd;stroke:#000000;stroke-width:5;stroke-linecap:round;stroke-dasharray:none;stroke-opacity:1"
           d="m 1340.8555,987.08109 c -7.0287,1.4308 -10.2386,5.19317 -9.8151,6.88321 0.4235,1.69004 4.4805,1.30754 7.3651,0.48268 2.8847,-0.82485 4.5969,-2.09201 8.5538,-2.21388 3.9568,-0.12188 10.1581,0.90158 15.9648,2.09307 5.8068,1.19148 11.2189,2.55098 12.2621,1.43332 1.0432,-1.11767 -2.2825,-4.71245 -9.3688,-6.96034 -7.0864,-2.24788 -17.9333,-3.14885 -24.9619,-1.71806 z"
           id="path79"
           inkscape:path-effect="#path-effect86"
           inkscape:original-d="m 1337.0369,984.7493 c -3.2101,3.76259 -6.42,7.52496 -9.6301,11.28755 4.0571,-0.38251 8.1141,-0.76501 12.1711,-1.14751 1.7123,-1.2672 3.4245,-2.53437 5.1368,-3.80159 6.2014,1.02348 12.4027,2.04693 18.604,3.07038 5.4122,1.35952 10.8243,2.71902 16.2365,4.07855 -3.3258,-3.59484 -6.6515,-7.18963 -9.9772,-10.78443 -10.847,-0.90098 -21.6939,-1.80195 -32.5411,-2.70295 z"
           sodipodi:nodetypes="cccccccc"
           transform="translate(-472.95892,-320.28108)"
           inkscape:label="Mouth" /><g
           id="g88"
           inkscape:label="Eye"
           transform="translate(-81.3942,270.38599)"><rect
             style="fill:#2c2c2c;fill-opacity:1;fill-rule:evenodd;stroke:none;stroke-width:5;stroke-linecap:round;stroke-dasharray:none;stroke-opacity:1"
             id="rect87"
             width="12.214728"
             height="29.179628"
             x="902.45752"
             y="-423.74619"
             transform="rotate(45)" /><rect
             style="fill:#2c2c2c;fill-opacity:1;fill-rule:evenodd;stroke:none;stroke-width:5;stroke-linecap:round;stroke-dasharray:none;stroke-opacity:1"
             id="rect88"
             width="12.214728"
             height="29.179628"
             x="-415.26373"
             y="893.9751"
             transform="matrix(-0.70710678,0.70710678,0.70710678,0.70710678,0,0)" /></g><g
           id="g90"
           inkscape:label="Eye"
           transform="translate(-25.20321,270.38599)"><rect
             style="fill:#2c2c2c;fill-opacity:1;fill-rule:evenodd;stroke:none;stroke-width:5;stroke-linecap:round;stroke-dasharray:none;stroke-opacity:1"
             id="rect89"
             width="12.214728"
             height="29.179628"
             x="902.45752"
             y="-423.74619"
             transform="rotate(45)" /><rect
             style="fill:#2c2c2c;fill-opacity:1;fill-rule:evenodd;stroke:none;stroke-width:5;stroke-linecap:round;stroke-dasharray:none;stroke-opacity:1"
             id="rect90"
             width="12.214728"
             height="29.179628"
             x="-415.26373"
             y="893.9751"
             transform="matrix(-0.70710678,0.70710678,0.70710678,0.70710678,0,0)" /></g><path
           style="font-variation-settings:normal;opacity:1;fill:#824747;fill-opacity:1;fill-rule:evenodd;stroke:#000000;stroke-width:5;stroke-linecap:butt;stroke-linejoin:miter;stroke-miterlimit:4;stroke-dasharray:none;stroke-dashoffset:0;stroke-opacity:1;stop-color:#000000;stop-opacity:1"
           id="path90"
           sodipodi:type="arc"
           sodipodi:cx="993.52222"
           sodipodi:cy="506.69135"
           sodipodi:rx="8.428648"
           sodipodi:ry="8.428648"
           sodipodi:start="6.274447"
           sodipodi:end="3.1415927"
           sodipodi:arc-type="arc"
           d="m 1001.9505,506.61769 a 8.428648,8.428648 0 0 1 -4.17151,7.3484 8.428648,8.428648 0 0 1 -8.44982,0.0369 8.428648,8.428648 0 0 1 -4.2356,-7.31166"
           transform="rotate(10)"
           sodipodi:open="true" /></g><g
         id="g1"
         transform="matrix(-1,0,0,1,202.51456,0)"><rect
           style="fill:#ddbe6b;fill-opacity:1;fill-rule:evenodd;stroke:#000000;stroke-width:5;stroke-linecap:round;stroke-dasharray:none;stroke-opacity:1"
           id="rect1"
           width="16.693064"
           height="96.549072"
           x="116.36401"
           y="269.82928"
           transform="rotate(-15)" /><ellipse
           style="font-variation-settings:normal;opacity:1;fill:#ddbe6b;fill-opacity:1;fill-rule:evenodd;stroke:#000000;stroke-width:5;stroke-linecap:butt;stroke-linejoin:miter;stroke-miterlimit:4;stroke-dasharray:none;stroke-dashoffset:0;stroke-opacity:1;stop-color:#000000;stop-opacity:1"
           id="ellipse1"
           cx="217.08089"
           cy="330.19611"
           rx="15.477802"
           ry="12.477801" /></g><g
         id="g2"><rect
           style="fill:#ddbe6b;fill-opacity:1;fill-rule:evenodd;stroke:#000000;stroke-width:5;stroke-linecap:round;stroke-dasharray:none;stroke-opacity:1"
           id="rect2"
           width="16.693064"
           height="96.549072"
           x="116.36401"
           y="269.82928"
           transform="rotate(-15)" /><ellipse
           style="font-variation-settings:normal;opacity:1;fill:#ddbe6b;fill-opacity:1;fill-rule:evenodd;stroke:#000000;stroke-width:5;stroke-linecap:butt;stroke-linejoin:miter;stroke-miterlimit:4;stroke-dasharray:none;stroke-dashoffset:0;stroke-opacity:1;stop-color:#000000;stop-opacity:1"
           id="ellipse2"
           cx="217.08089"
           cy="330.19611"
           rx="15.477802"
           ry="12.477801" /></g><path
         id="path3"
         style="fill:#2830b1;fill-rule:evenodd;stroke:#000000;stroke-width:5;stroke-linecap:round"
         d="m 49.0625,174.96871 c -7.446995,1.76706 -52.3626113,39.66598 -52.1112852,56.02344 0.2513261,16.35746 24.3948382,11.46626 28.1455782,15.19333 3.75074,3.72707 11.245707,-37.81319 23.965707,-25.21673 12.72,12.59646 0,134.53125 0,134.53125 h 3.808594 V 463.51758 H 90.1875 V 355.5 h 23.92188 v 108.01758 h 37.3164 V 355.5 h 3 c 0,0 -9.88029,-122.59187 0,-135.33594 9.88029,-12.74407 13.83904,21.18725 19.14214,18.25169 5.3031,-2.93555 24.99906,5.00178 28.12677,-10.16172 3.12771,-15.1635 -34.06552,-53.28532 -47.26891,-53.28532 0,0 -34.6335,-7.35328 -52.68164,-7.35328 -18.048144,0 -52.68164,7.35328 -52.68164,7.35328 z"
         sodipodi:nodetypes="szzzcccccccccczzzsss" /><ellipse
         style="font-variation-settings:normal;opacity:1;fill:#9d6a37;fill-opacity:1;fill-rule:evenodd;stroke:#000000;stroke-width:5.21664;stroke-linecap:butt;stroke-linejoin:miter;stroke-miterlimit:4;stroke-dasharray:none;stroke-dashoffset:0;stroke-opacity:1;stop-color:#000000;stop-opacity:1"
         id="ellipse5"
         cx="71.259804"
         cy="463.60309"
         rx="18.286654"
         ry="10.441194" /><ellipse
         style="font-variation-settings:normal;opacity:1;fill:#9d6a37;fill-opacity:1;fill-rule:evenodd;stroke:#000000;stroke-width:5.21664;stroke-linecap:butt;stroke-linejoin:miter;stroke-miterlimit:4;stroke-dasharray:none;stroke-dashoffset:0;stroke-opacity:1;stop-color:#000000;stop-opacity:1"
         id="ellipse6"
         cx="132.55174"
         cy="463.60309"
         rx="18.286654"
         ry="10.441194" /><path
         style="fill:#491111;fill-opacity:1;fill-rule:evenodd;stroke:none;stroke-width:5;stroke-linecap:round;stroke-dasharray:none;stroke-opacity:1"
         d="m 116.4646,288.30315 c -12.14692,3.21458 -24.998047,5.5836 -37.340682,3.4509 -5.175682,-0.89432 -12.898982,-1.03371 -14.941878,-6.20282 -1.806388,-4.57067 3.419101,-7.75843 7.224503,-8.84999 5.481589,-1.57238 13.739868,-1.22634 15.690575,-7.60309 1.331703,-4.35326 -0.123183,-8.76202 -0.413718,-13.32814 -0.363212,-5.70833 -4.735001,-12.76795 -0.571425,-17.27795 1.376314,-1.49083 4.974408,0.89192 3.135644,-3.19065 -2.380623,-5.28565 -7.359361,-10.84313 -5.408117,-16.76396 1.674214,-5.08021 8.041207,-4.55147 12.401136,-4.35865 5.431512,0.24021 11.436292,2.7867 16.512532,-0.74548 5.0626,-3.52269 -1.24272,-7.86877 -2.37595,-12.40017 -1.28464,-5.13683 8.50557,-3.07729 11.9334,-2.81708 4.97324,0.37753 11.88454,1.23328 13.70165,6.19416 2.13588,5.83117 -0.20724,11.93976 -1.06622,17.8046 -1.22206,8.34375 -0.83483,16.77911 0.73531,25.00219 1.05638,5.53242 -3.24797,9.33291 -5.6241,13.79785 -1.58819,2.98432 -5.00025,8.86595 1.41732,7.55238 5.51522,-1.12888 16.56305,-5.29419 17.1,0.42634 0.51473,5.48388 -6.54112,4.95745 -9.32137,8.58221 -3.12761,4.07763 -2.9104,9.19646 -2.35293,13.89026 0.58003,4.88375 -0.53242,7.77816 -6.66042,9.33632 -4.29344,1.09168 -8.29917,-4.57834 -11.67894,0.30935 -3.13819,4.53834 -2.2066,10.32648 -5.19789,15.219 -2.88874,4.72479 3.83535,13.33139 -0.86923,15.21593 -3.0903,1.2379 -5.92916,1.4898 -9.77993,1.70175 -5.336428,0.29373 -10.822868,-4.89557 -15.611743,-2.72634 -4.009251,1.81609 -7.833566,6.39968 -12.964506,2.36164 -4.504403,-3.54496 -7.892524,-8.14284 -9.834134,-13.3328 -1.604844,-4.28978 -4.468004,-8.19624 -5.221017,-12.69421 -1.001497,-5.98223 5.614191,-6.41237 9.260364,-2.35158 3.515505,3.91527 8.869957,18.2983 8.744396,13.14364 -0.115156,-4.72754 0.761189,-9.92371 -0.103861,-14.70085 -1.031079,-5.69403 -4.788431,-11.61956 -1.478359,-17.4674 2.688282,-4.74934 8.822532,-5.35441 13.49469,-3.56921"
         id="path7"
         inkscape:path-effect="#path-effect7"
         inkscape:original-d="m 116.4646,288.30315 c -9.2787,2.36044 -17.0574,3.37565 -26.4722,3.53522 -3.3085,0.0561 -6.6278,0.25379 -9.92705,0 -5.03572,-0.38736 -9.83923,-1.76928 -14.2288,-4.30173 -0.7462,-0.4305 -1.31516,-1.19359 -1.65451,-1.98541 -1.55162,-3.62044 1.63823,-6.58057 4.63263,-7.94166 6.36852,-2.89478 17.71453,-1.36254 18.86143,-10.91978 0.2369,-1.97431 0.5109,-3.97593 0.3309,-5.95624 -0.155,-1.7053 -0.9767,-3.28672 -1.3236,-4.96354 -0.316,-1.52753 -0.421,-3.09144 -0.6618,-4.63263 -0.3107,-1.98867 -0.7924,-3.95343 -0.9927,-5.95624 -0.1271,-1.27095 -0.07,-6.13015 1.6545,-7.27985 1.1051,-0.73672 4.2062,1.41561 2.9781,-1.65452 -1.8914,-4.72853 -9.19838,-14.6796 -4.6326,-19.85414 4.6355,-5.2536 17.4311,-0.31905 23.4941,-0.99271 1.6418,-0.18242 4.1854,-1.62264 5.2944,-2.97812 3.6194,-4.42372 -0.066,-8.00728 -2.9781,-10.91978 -0.538,-0.53795 -1.5616,-1.46295 -0.9927,-2.31631 0.9716,-1.45746 5.7988,-0.99271 6.618,-0.99271 1.3236,0 2.6481,-0.049 3.9708,0 1.6571,0.0614 3.3574,-0.081 4.9636,0.3309 4.0474,1.0378 10.1361,2.59536 11.2507,7.61076 0.2392,1.07674 0,2.20601 0,3.30902 0,1.21331 0.1569,2.43681 0,3.63993 -0.1765,1.35288 -0.7744,2.62407 -0.9927,3.97083 -0.4446,2.74149 -0.7995,5.50199 -0.9928,8.27256 -0.4056,5.81471 0.2555,6.61435 0.6618,12.57429 0.1803,2.64337 0.2531,5.29328 0.331,7.94165 0.042,1.41277 0.084,4.83436 -0.331,6.28715 -0.2024,0.70871 -2.5048,3.72681 -2.6472,3.97083 -1.069,1.83266 -2.0292,3.72765 -2.9781,5.62534 -0.039,0.0781 -2.8545,6.12569 -2.3163,6.28714 4.8564,1.45693 2.9623,0.13029 9.2653,-0.3309 2.5301,-0.18513 5.0831,-0.21666 7.6107,0 1.3594,0.11652 2.7696,0.34587 3.9708,0.99271 1.2013,0.64683 0.01,3.04542 -0.9927,3.97082 -0.7982,0.73685 -2.0064,0.83779 -2.9781,1.32361 -4.2143,2.10717 -5.8014,3.3575 -6.9489,8.60347 -0.3536,1.61629 0.097,3.31187 0,4.96353 -0.1238,2.10366 -0.4938,4.18656 -0.6618,6.28715 -0.1135,1.4176 0.3475,3.24236 0,4.63263 -0.2804,1.1214 -2.4986,1.86963 -3.3091,1.98541 -1.6415,0.23451 -3.3135,0.4959 -4.9635,0.33091 -1.7038,-0.17039 -3.3488,-0.75372 -4.9635,-1.32361 -0.9696,-0.34219 -0.622,-1.1731 -1.9855,-0.66181 -2.384,0.89401 -3.7176,3.4293 -4.6326,5.62534 -0.4263,1.02324 -0.158,2.21408 -0.3309,3.30903 -0.1586,1.00447 -0.3696,2.00408 -0.6618,2.97812 -1.5972,5.32399 -4.4705,7.07079 -3.9708,13.56699 0.128,1.66424 0.4871,3.30356 0.6618,4.96354 0.068,0.64432 0.086,2.2732 0,2.31632 -0.1973,0.0986 -0.4553,-0.0775 -0.6618,0 -4.8335,1.81255 0.2174,0.6215 -3.309,0.9927 -1.66,0.17474 -3.2984,0.54697 -4.9636,0.66181 -4.4929,0.30985 -9.267,-0.31078 -13.567,-1.65451 -0.8018,-0.25056 -1.5194,-0.72707 -2.3163,-0.99271 -1.3843,-0.46143 -4.0833,2.32678 -4.6326,2.64722 -0.3929,0.22915 -0.9014,0.162 -1.32364,0.3309 -0.98276,0.39311 -1.99535,1.26141 -2.97812,1.65451 -2.37334,0.94934 -8.71499,-6.3771 -9.59617,-7.61075 -0.63142,-0.88399 -0.74351,-2.05964 -1.32361,-2.97812 -0.75428,-1.19429 -1.96122,-2.07425 -2.64721,-3.30903 -1.68118,-3.02612 -2.57665,-6.42757 -3.97083,-9.59617 -1.55488,-3.53381 -4.10232,-6.05265 0,-9.92707 0.96228,-0.90882 2.86423,-0.7262 3.97083,0 2.67428,1.755 4.65422,4.42403 6.61804,6.94895 1.91656,2.46414 3.37208,5.25606 4.96354,7.94166 0.17782,0.30007 -0.0179,0.99271 0.3309,0.99271 0.3309,0 0,-0.66181 0,-0.99271 0,-1.76481 0,-3.52963 0,-5.29444 0,-2.53692 0.21666,-5.0831 0,-7.61075 -0.35376,-4.12727 -4.08104,-10.84656 -2.97812,-14.89061 1.40282,-5.14366 4.61493,-7.72032 9.92709,-7.94166 1.6858,-0.0702 3.2992,0.71532 4.9635,0.99271" /></g><path
       style="fill:#493c20;fill-opacity:1;fill-rule:evenodd;stroke:#000000;stroke-width:5;stroke-linecap:round;stroke-dasharray:none;stroke-opacity:1"
       d="m 1434.421,790.65285 c 0,0 -100.3006,111.6364 -166.267,143.27266 -43.7937,21.00265 -94.7647,24.08782 -143.2727,26.53197 -64.3712,3.24344 -133.16122,8.75964 -192.70224,-15.91918 -37.89173,-15.70553 -93.84304,-79.59592 -93.84304,-79.59592 l -26.53197,-77.82713 z"
       id="path6"
       sodipodi:nodetypes="csssccc" /></g></svg>
