<?xml version="1.0" encoding="UTF-8" standalone="no"?>
<!-- Created with Inkscape (http://www.inkscape.org/) -->

<svg
   width="100.00002"
   height="50.000015"
   viewBox="0 0 26.458339 13.229171"
   version="1.1"
   id="svg1"
   inkscape:version="1.3.2 (091e20ef0f, 2023-11-25, custom)"
   sodipodi:docname="chocolate.svg"
   inkscape:export-filename="chocolate.png"
   inkscape:export-xdpi="191.99995"
   inkscape:export-ydpi="191.99995"
   xmlns:inkscape="http://www.inkscape.org/namespaces/inkscape"
   xmlns:sodipodi="http://sodipodi.sourceforge.net/DTD/sodipodi-0.dtd"
   xmlns:xlink="http://www.w3.org/1999/xlink"
   xmlns="http://www.w3.org/2000/svg"
   xmlns:svg="http://www.w3.org/2000/svg">
  <sodipodi:namedview
     id="namedview1"
     pagecolor="#505050"
     bordercolor="#ffffff"
     borderopacity="1"
     inkscape:showpageshadow="0"
     inkscape:pageopacity="0"
     inkscape:pagecheckerboard="1"
     inkscape:deskcolor="#d1d1d1"
     inkscape:document-units="mm"
     inkscape:zoom="3.3054452"
     inkscape:cx="42.808152"
     inkscape:cy="-5.5968255"
     inkscape:window-width="1504"
     inkscape:window-height="931"
     inkscape:window-x="0"
     inkscape:window-y="0"
     inkscape:window-maximized="1"
     inkscape:current-layer="layer1"
     showgrid="false"
     showguides="false" />
  <defs
     id="defs1">
    <pattern
       inkscape:collect="always"
       xlink:href="#invert grid"
       preserveAspectRatio="xMidYMid"
       id="pattern4"
       patternTransform="matrix(0.27759295,0,0,0.28621976,-0.0056791,-0.08445686)"
       x="0"
       y="0" />
    <pattern
       patternUnits="userSpaceOnUse"
       width="12"
       height="12"
       preserveAspectRatio="xMidYMid"
       id="invert grid"
       x="0"
       y="0"
       style="fill:#78333a"
       inkscape:label="Inverted grid"
       inkscape:collect="always"
       inkscape:isstock="true">
      <rect
         style="stroke:none;paint-order:markers fill stroke"
         id="rect2-0"
         width="10"
         height="10"
         x="0"
         y="0" />
    </pattern>
    <mask
       maskUnits="userSpaceOnUse"
       id="mask4">
      <text
         xml:space="preserve"
         style="font-style:normal;font-variant:normal;font-weight:normal;font-stretch:normal;font-size:4.23333px;line-height:0;font-family:'Sometype Mono';-inkscape-font-specification:'Sometype Mono, Normal';font-variant-ligatures:normal;font-variant-caps:normal;font-variant-numeric:normal;font-variant-east-asian:normal;letter-spacing:0.79375px;mix-blend-mode:normal;fill:#ffffff;fill-opacity:1;fill-rule:evenodd;stroke:#ffffff;stroke-width:0.661458;stroke-linecap:round;stroke-dasharray:none;stroke-opacity:1;paint-order:normal"
         x="2.8723834"
         y="10.666217"
         id="text4"><tspan
           sodipodi:role="line"
           id="tspan4"
           x="2.8723834"
           y="10.666217"
           style="stroke-width:0.661458">Chocolate</tspan></text>
    </mask>
  </defs>
  <g
     inkscape:label="Layer 1"
     inkscape:groupmode="layer"
     id="layer1"
     transform="translate(-0.15405566,-0.50356388)">
    <rect
       style="fill:url(#pattern4);fill-opacity:1;fill-rule:evenodd;stroke:#010100;stroke-width:1.49159;stroke-linecap:round;stroke-dasharray:none;stroke-opacity:1;paint-order:normal"
       id="rect1"
       width="24.966749"
       height="11.73758"
       x="0.89985067"
       y="1.2493589" />
    <path
       style="fill:#4d2026;fill-opacity:1;fill-rule:evenodd;stroke:#4d2026;stroke-width:0.222072;stroke-linecap:round;stroke-dasharray:none;stroke-opacity:1;paint-order:normal"
       d="M 10.051005,40.441447 V 36.642642 H 7.9141774 5.7773495 v -0.945107 -0.945108 l 2.0972571,-0.04416 2.097257,-0.04417 0.041622,-5.500353 0.04162,-5.500353 H 7.9162285 5.7773495 v -0.945107 -0.945108 l 2.0972571,-0.04416 2.097257,-0.04417 0.041622,-5.500353 0.04162,-5.500353 H 7.9162285 5.7773495 V 9.7390324 8.7939253 l 2.0972571,-0.044165 2.097257,-0.044165 0.04551,-1.4641228 0.04551,-1.4641229 h 0.943761 0.943762 v 1.5058276 1.5058273 l 5.262928,-0.041704 5.262928,-0.041705 0.04551,-1.4641228 0.04551,-1.4641229 h 0.937822 0.937822 l 0.04551,1.4641229 0.04551,1.4641228 h 5.302499 5.302499 l 0.04551,-1.4641228 0.04551,-1.4641229 h 0.943762 0.943761 v 1.5058276 1.5058273 l 5.262928,-0.041704 5.262928,-0.041705 0.04551,-1.4641228 0.04551,-1.4641229 h 0.943763 0.943761 l 0.0024,1.3058393 c 0.0013,0.7182116 0.05957,1.3958637 0.129414,1.5058936 0.09903,0.156005 1.274748,0.1908568 5.339647,0.1582835 l 5.212655,-0.041771 0.04551,-1.4641228 0.04551,-1.4641229 h 0.937822 0.937822 l 0.04551,1.4641229 0.04551,1.4641228 h 5.223357 5.223358 l 0.04551,-1.4641228 0.04551,-1.4641229 h 1.022905 1.022902 v 1.5058276 1.5058273 l 5.262928,-0.041704 5.262928,-0.041705 0.04551,-1.4641228 0.04551,-1.4641229 h 0.937823 0.937822 l 0.04551,1.4641229 0.04551,1.4641228 3.363525,0.042719 3.363525,0.042719 V 9.7375862 10.68414 h -3.405147 -3.405148 l 0.04162,5.500353 0.04162,5.500353 3.363525,0.04272 3.363525,0.04272 v 0.946553 0.946553 h -3.405147 -3.405148 l 0.04162,5.500353 0.04162,5.500353 3.363525,0.04272 3.363525,0.04272 v 0.946553 0.946553 h -3.403096 -3.403096 v 3.798805 3.798805 H 86.50196 85.552258 V 40.441447 36.642642 H 80.249759 74.94726 v 3.798805 3.798805 h -1.028843 -1.028843 v -3.798805 -3.798805 h -5.302499 -5.302498 v 3.798805 3.798805 h -0.949702 -0.949701 v -3.80091 -3.800911 l -5.34207,0.04168 -5.34207,0.04168 -0.04243,3.759235 -0.04244,3.759234 H 48.669326 47.72249 V 40.441455 36.64265 h -5.302499 -5.302499 v 3.798805 3.798805 H 36.167791 35.21809 V 40.441455 36.64265 h -5.381641 -5.381641 v 3.798805 3.798805 H 23.505107 22.555406 V 40.441455 36.64265 h -5.302499 -5.302499 v 3.798805 3.798805 h -0.949701 -0.949702 z m 12.466881,-11.277703 0.04162,-5.500353 h -5.30455 -5.30455 v 5.542057 5.542058 l 5.262928,-0.0417 5.262928,-0.04171 z m 12.662684,0 0.04162,-5.500353 H 29.8385 24.454808 v 5.434401 c 0,2.988922 0.04843,5.482831 0.10762,5.542023 0.05919,0.05919 2.463124,0.08887 5.34207,0.06595 l 5.23445,-0.04167 z m 12.5044,0 0.04162,-5.500353 h -5.304551 -5.30455 v 5.542057 5.542058 l 5.262928,-0.0417 5.262928,-0.04171 z m 12.662686,-0.0021 0.04162,-5.502461 -5.344124,0.04168 -5.344123,0.04168 -0.04423,5.144216 c -0.02433,2.829318 -0.0049,5.305435 0.04312,5.502482 l 0.08735,0.358268 5.259377,-0.0417 5.259378,-0.0417 z m 12.504399,0.0021 0.04162,-5.500353 h -5.30455 -5.30455 v 5.542057 5.542058 l 5.262928,-0.0417 5.262928,-0.04171 z m 12.662684,0 0.04162,-5.500353 h -5.30455 -5.304551 v 5.542057 5.542058 l 5.262928,-0.0417 5.262928,-0.04171 z M 22.517886,16.184493 22.559508,10.68414 h -5.30455 -5.30455 v 5.542058 5.542057 l 5.262928,-0.0417 5.262928,-0.04171 z m 12.662684,0 0.04162,-5.500353 H 29.8385 24.454808 v 5.434401 c 0,2.988921 0.04843,5.482831 0.10762,5.542023 0.05919,0.05919 2.463124,0.08887 5.34207,0.06595 l 5.23445,-0.04167 z m 12.5044,0 0.04162,-5.500353 h -5.304551 -5.30455 v 5.542058 5.542057 l 5.262928,-0.0417 5.262928,-0.04171 z m 12.662686,-0.0021 0.04162,-5.502461 -5.344124,0.04168 -5.344123,0.04168 -0.04423,5.144216 c -0.02433,2.829318 -0.0049,5.305435 0.04312,5.502482 l 0.08735,0.358268 5.259377,-0.0417 5.259378,-0.0417 z m 12.504399,0.0021 0.04162,-5.500353 h -5.30455 -5.30455 v 5.434401 c 0,2.988921 0.04844,5.482844 0.107648,5.542051 0.05921,0.05921 2.427525,0.08888 5.262928,0.06595 l 5.15528,-0.0417 z m 12.662684,0 0.04162,-5.500353 h -5.30455 -5.304551 v 5.542058 5.542057 l 5.262928,-0.0417 5.262928,-0.04171 z"
       id="path6"
       transform="matrix(0.26458333,0,0,0.26458333,0.15405566,0.50356388)" />
  </g>
  <g
     inkscape:groupmode="layer"
     id="layer2"
     inkscape:label="Wrapper">
    <rect
       style="fill:#000080;fill-opacity:1;fill-rule:evenodd;stroke:#000101;stroke-width:1.32292;stroke-linecap:round;stroke-dasharray:none;stroke-opacity:1;paint-order:normal"
       id="rect2"
       width="13.229167"
       height="11.90625"
       x="0.81551564"
       y="1.1650238"
       transform="translate(-0.15405566,-0.50356389)" />
  </g>
  <g
     inkscape:groupmode="layer"
     id="layer3"
     inkscape:label="Wrapper Text"
     style="mix-blend-mode:normal">
    <rect
       style="fill:#ffffff;fill-opacity:1;fill-rule:evenodd;stroke:#000101;stroke-width:1.32292;stroke-linecap:round;stroke-dasharray:none;stroke-opacity:1;paint-order:normal"
       id="rect6"
       width="13.229167"
       height="11.90625"
       x="0.81551564"
       y="1.1650238"
       transform="translate(-0.15405566,-0.50356389)"
       mask="url(#mask4)" />
  </g>
</svg>
