<?xml version="1.0" encoding="UTF-8" standalone="no"?>
<!-- Created with Inkscape (http://www.inkscape.org/) -->

<svg
   width="1920"
   height="1080"
   viewBox="0 0 1920 1080"
   version="1.1"
   id="svg1"
   inkscape:version="1.3.2 (091e20ef0f, 2023-11-25, custom)"
   sodipodi:docname="memory_hole_pipe.svg"
   xmlns:inkscape="http://www.inkscape.org/namespaces/inkscape"
   xmlns:sodipodi="http://sodipodi.sourceforge.net/DTD/sodipodi-0.dtd"
   xmlns="http://www.w3.org/2000/svg"
   xmlns:svg="http://www.w3.org/2000/svg">
  <sodipodi:namedview
     id="namedview1"
     pagecolor="#505050"
     bordercolor="#ffffff"
     borderopacity="1"
     inkscape:showpageshadow="0"
     inkscape:pageopacity="0"
     inkscape:pagecheckerboard="1"
     inkscape:deskcolor="#d1d1d1"
     inkscape:document-units="px"
     inkscape:zoom="0.15789545"
     inkscape:cx="1000.6621"
     inkscape:cy="908.82921"
     inkscape:window-width="1504"
     inkscape:window-height="931"
     inkscape:window-x="0"
     inkscape:window-y="0"
     inkscape:window-maximized="1"
     inkscape:current-layer="layer1" />
  <defs
     id="defs1" />
  <g
     inkscape:label="Layer 1"
     inkscape:groupmode="layer"
     id="layer1">
    <path
       id="rect1"
       style="fill:#494949;fill-rule:evenodd;stroke:#000000;stroke-width:5.44228;stroke-linecap:round"
       d="M 180.99609 -6.3789062 C 172.85858 -6.3789062 166.30664 0.17303491 166.30664 8.3105469 L 166.30664 891.17969 C 166.30664 899.3172 172.85858 905.86719 180.99609 905.86719 L 288.26172 905.86719 C 290.52474 908.70924 293.86517 910.64258 297.79688 910.64258 L 1312.8164 910.64258 C 1319.1459 910.64258 1324.1334 905.86415 1324.8906 899.74609 L 1326.6875 899.74609 C 1333.5415 899.74609 1339.0586 894.229 1339.0586 887.375 L 1339.0586 371.42578 C 1339.0586 364.57179 1333.5415 359.05273 1326.6875 359.05273 L 1135.998 359.05273 C 1129.1441 359.05273 1123.627 364.57179 1123.627 371.42578 L 1123.627 397.07031 L 709.6582 397.07031 L 709.6582 249.22461 L 1630.5254 249.22461 L 1630.5254 1077.4609 C 1630.5254 1084.3149 1636.0444 1089.834 1642.8984 1089.834 L 1808.2402 1089.834 C 1815.0942 1089.834 1820.6133 1084.3149 1820.6133 1077.4609 L 1820.6133 96.855469 C 1820.6133 90.001469 1815.0942 84.482422 1808.2402 84.482422 L 1795.2676 84.482422 L 1795.2676 75.734375 C 1795.2676 68.880375 1789.7505 63.363281 1782.8965 63.363281 L 553.06445 63.363281 C 546.21045 63.363281 540.69336 68.880375 540.69336 75.734375 L 540.69336 101.37891 L 506.59766 101.37891 C 499.74365 101.37891 494.22656 106.89795 494.22656 113.75195 L 494.22656 397.07031 L 481.25391 397.07031 C 474.3999 397.07031 468.88086 402.58936 468.88086 409.44336 L 468.88086 595.90625 C 468.88086 602.76025 474.3999 608.2793 481.25391 608.2793 L 1123.627 608.2793 L 1123.627 672.78711 L 373.63086 672.78711 L 373.63086 8.3105469 C 373.63086 0.17303491 367.08087 -6.3789062 358.94336 -6.3789062 L 180.99609 -6.3789062 z " />
  </g>
</svg>
