<?xml version="1.0" encoding="UTF-8" standalone="no"?>
<!-- Created with Inkscape (http://www.inkscape.org/) -->

<svg
   width="843.79822"
   height="161.96989"
   viewBox="0 0 843.7982 161.96989"
   version="1.1"
   id="svg1"
   inkscape:version="1.3.2 (091e20ef0f, 2023-11-25, custom)"
   sodipodi:docname="vent.svg"
   xmlns:inkscape="http://www.inkscape.org/namespaces/inkscape"
   xmlns:sodipodi="http://sodipodi.sourceforge.net/DTD/sodipodi-0.dtd"
   xmlns:xlink="http://www.w3.org/1999/xlink"
   xmlns="http://www.w3.org/2000/svg"
   xmlns:svg="http://www.w3.org/2000/svg">
  <sodipodi:namedview
     id="namedview1"
     pagecolor="#505050"
     bordercolor="#ffffff"
     borderopacity="1"
     inkscape:showpageshadow="0"
     inkscape:pageopacity="0"
     inkscape:pagecheckerboard="1"
     inkscape:deskcolor="#d1d1d1"
     inkscape:document-units="px"
     inkscape:zoom="1.2462061"
     inkscape:cx="361.49717"
     inkscape:cy="64.596054"
     inkscape:window-width="1504"
     inkscape:window-height="931"
     inkscape:window-x="0"
     inkscape:window-y="0"
     inkscape:window-maximized="1"
     inkscape:current-layer="layer3" />
  <defs
     id="defs1" />
  <g
     inkscape:label="Layer 1"
     inkscape:groupmode="layer"
     id="layer1"
     transform="translate(-1047.3399,-204.70026)">
    <rect
       style="fill:#292929;fill-opacity:1;fill-rule:evenodd;stroke:#000000;stroke-width:5;stroke-linecap:round;stroke-dasharray:none"
       id="rect1"
       width="276.267"
       height="156.96989"
       x="1331.1046"
       y="207.20026" />
    <use
       x="0"
       y="0"
       xlink:href="#rect1"
       id="use5"
       transform="translate(281.26649)" />
  </g>
  <g
     inkscape:groupmode="layer"
     id="layer3"
     inkscape:label="Layer 2"
     transform="translate(-1047.3399,-204.70026)">
    <path
       id="rect2"
       style="display:inline;fill:#7b7b7b;fill-rule:evenodd;stroke:#000000;stroke-width:5;stroke-linecap:round"
       d="m 1331.1055,207.20117 v 156.96875 h 276.2656 V 207.20117 Z m 41.4687,18.23633 h 193.3281 c 8.4688,0 15.2872,6.81841 15.2872,15.28711 0,8.46869 -6.8184,15.28711 -15.2872,15.28711 h -193.3281 c -8.4687,0 -15.2871,-6.81842 -15.2871,-15.28711 0,-8.4687 6.8184,-15.28711 15.2871,-15.28711 z m 0,44.96094 h 193.3281 c 8.4688,0 15.2872,6.8184 15.2872,15.28711 0,8.46871 -6.8184,15.28711 -15.2872,15.28711 h -193.3281 c -8.4687,0 -15.2871,-6.8184 -15.2871,-15.28711 0,-8.46871 6.8184,-15.28711 15.2871,-15.28711 z m 0,44.96094 h 193.3281 c 8.4688,0 15.2872,6.81643 15.2872,15.28515 0,8.46871 -6.8184,15.28711 -15.2872,15.28711 h -193.3281 c -8.4687,0 -15.2871,-6.8184 -15.2871,-15.28711 0,-8.46872 6.8184,-15.28515 15.2871,-15.28515 z" />
    <use
       x="0"
       y="0"
       xlink:href="#rect2"
       id="use6"
       transform="translate(-281.2656)" />
  </g>
</svg>
